# xmcd
#
# Track frame offsets:
#	150
#	15280
#	32262
#	48440
#	59602
#	71575
#	85145
#	99640
#	113417
#	126480
#	141682
#	153912
#	168900
#	181432
#	194667
#	211667
#	224210
#	240647
#	255917
#	276487
#	293240
#	311630
#
# Disc length: 4417 seconds
#
# Revision: 1
# Processed by: cddbd v1.5PL3 Copyright (c) Steve Scherf et al.
# Submitted via: CDex 1.50Beta5
#
DISCID=49113f16
DTITLE=浅野ゆう子 - 浅野ゆう子ヒット・コレクション
DYEAR=1999
DGENRE=R&B
TTITLE0=セクシー・バス・ストップ
TTITLE1=ハッスル・ジェット
TTITLE2=ムーンライト・タクシー
TTITLE3=とびだせ初恋
TTITLE4=恋はダン・ダン
TTITLE5=ひとりぼっちの季節
TTITLE6=彼
TTITLE7=太陽のいたずら
TTITLE8=青い誘惑
TTITLE9=卒業アルバム
TTITLE10=オー！ミステリー
TTITLE11=スーパー・ウーマン
TTITLE12=ぽつりぽつり
TTITLE13=朝日の前に
TTITLE14=ストップ・ザ・カンバセーション
TTITLE15=センチメンタル海岸
TTITLE16=サマーチャンピオン
TTITLE17=灼けつく想い
TTITLE18=半分愛して(Love Me Half)
TTITLE19=気分はアカプルコ
TTITLE20=バレンチノ　インフェルノ
TTITLE21=Nombre Noir〜抱かれるままに
EXTD=
EXTT0=
EXTT1=
EXTT2=
EXTT3=
EXTT4=
EXTT5=
EXTT6=
EXTT7=
EXTT8=
EXTT9=
EXTT10=
EXTT11=
EXTT12=
EXTT13=
EXTT14=
EXTT15=
EXTT16=
EXTT17=
EXTT18=
EXTT19=
EXTT20=
EXTT21=
PLAYORDER=
